HIERARCHY
ROOT Hips
{
	OFFSET -0.001795 -0.223333 0.028219
	CHANNELS 6 Xposition Yposition Zposition Zrotation Yrotation Xrotation 
	JOINT LeftUpLeg
	{
		OFFSET 0.069520 -0.091406 -0.006815
		CHANNELS 3 Zrotation Yrotation Xrotation
		JOINT LeftLeg
		{
			OFFSET 0.034277 -0.375199 -0.004496
			CHANNELS 3 Zrotation Yrotation Xrotation
			JOINT LeftFoot
			{
				OFFSET -0.013596 -0.397961 -0.043693
				CHANNELS 3 Zrotation Yrotation Xrotation
				JOINT LeftToe
				{
					OFFSET 0.026358 -0.055791 0.119288
					CHANNELS 3 Zrotation Yrotation Xrotation
					End Site
					{
						OFFSET 0.000000 0.000000 0.000000
					}
				}
			}
		}
	}
	JOINT RightUpLeg
	{
		OFFSET -0.067670 -0.090522 -0.004320
		CHANNELS 3 Zrotation Yrotation Xrotation
		JOINT RightLeg
		{
			OFFSET -0.038290 -0.382569 -0.008850
			CHANNELS 3 Zrotation Yrotation Xrotation
			JOINT RightFoot
			{
				OFFSET 0.015774 -0.398415 -0.042312
				CHANNELS 3 Zrotation Yrotation Xrotation
				JOINT RightToe
				{
					OFFSET -0.025372 -0.048144 0.123348
					CHANNELS 3 Zrotation Yrotation Xrotation
					End Site
					{
						OFFSET 0.000000 0.000000 0.000000
					}
				}
			}
		}
	}
	JOINT Spine
	{
		OFFSET -0.002533 0.108963 -0.026696
		CHANNELS 3 Zrotation Yrotation Xrotation
		JOINT Spine1
		{
			OFFSET 0.005487 0.135180 0.001092
			CHANNELS 3 Zrotation Yrotation Xrotation
			JOINT Spine2
			{
				OFFSET 0.001457 0.052922 0.025425
				CHANNELS 3 Zrotation Yrotation Xrotation
				JOINT Neck
				{
					OFFSET -0.002778 0.213870 -0.042857
					CHANNELS 3 Zrotation Yrotation Xrotation
					JOINT Head
					{
						OFFSET 0.005152 0.064970 0.051349
						CHANNELS 3 Zrotation Yrotation Xrotation
						End Site
						{
							OFFSET 0.000000 0.000000 0.000000
						}
					}
				}
				JOINT LeftShoulder
				{
					OFFSET 0.078845 0.121749 -0.034090
					CHANNELS 3 Zrotation Yrotation Xrotation
					JOINT LeftArm
					{
						OFFSET 0.090977 0.030469 -0.008868
						CHANNELS 3 Zrotation Yrotation Xrotation
						JOINT LeftForeArm
						{
							OFFSET 0.259612 -0.012772 -0.027456
							CHANNELS 3 Zrotation Yrotation Xrotation
							JOINT LeftHand
							{
								OFFSET 0.249234 0.008986 -0.001171
								CHANNELS 3 Zrotation Yrotation Xrotation
								End Site
								{
									OFFSET 0.000000 0.000000 0.000000
								}
							}
						}
					}
				}
				JOINT RightShoulder
				{
					OFFSET -0.081759 0.118833 -0.038615
					CHANNELS 3 Zrotation Yrotation Xrotation
					JOINT RightArm
					{
						OFFSET -0.096012 0.032551 -0.009143
						CHANNELS 3 Zrotation Yrotation Xrotation
						JOINT RightForeArm
						{
							OFFSET -0.253742 -0.013329 -0.021401
							CHANNELS 3 Zrotation Yrotation Xrotation
							JOINT RightHand
							{
								OFFSET -0.255298 0.007772 -0.005559
								CHANNELS 3 Zrotation Yrotation Xrotation
								End Site
								{
									OFFSET 0.000000 0.000000 0.000000
								}
							}
						}
					}
				}
			}
		}
	}
}
MOTION
Frames: 13
Frame Time: 0.050000
0.000000 0.969080 0.000000 19.680499 -22.399516 -30.400335 -2.317016 8.806739 -98.028496 -18.144093 21.468498 101.027212 4.560870 11.026220 5.787889 0.000000 0.000000 0.000000 -9.505489 1.913016 17.366365 -4.825717 1.833199 12.553053 -13.587792 -26.544793 41.597892 0.000000 0.000000 0.000000 -6.861627 2.393153 26.807114 -12.660793 7.838938 3.758056 -3.177883 7.894477 -3.478561 8.512495 -6.765139 0.377374 0.000000 0.000000 0.000000 -8.219572 -19.609695 7.431771 -40.966849 -23.116662 3.379132 -12.000500 -62.499566 9.475620 0.000000 0.000000 0.000000 9.644839 19.820537 6.914074 56.258683 27.200958 8.408084 10.655655 59.076210 6.579813 0.000000 0.000000 0.000000 
0.001188 0.971027 -0.000511 19.049983 -21.174560 -30.811438 -3.368878 6.672305 -109.167706 -21.239861 24.757253 107.060138 1.247087 11.807014 40.876875 0.000000 0.000000 0.000000 -10.833856 2.242776 18.989780 -2.123992 0.927099 9.428800 -17.320929 -27.826848 51.203822 0.000000 0.000000 0.000000 -5.388708 1.909658 26.663834 -10.978811 7.032133 5.039594 -6.709030 8.165955 -3.861415 11.644416 -8.407306 -3.590436 0.000000 0.000000 0.000000 -8.819119 -20.434802 7.574401 -37.643485 -21.843485 2.659728 -16.779055 -64.704875 12.392064 0.000000 0.000000 0.000000 11.649707 17.896708 6.432567 55.717287 30.416155 10.033195 8.017635 58.380104 5.380453 0.000000 0.000000 0.000000 
0.001414 0.968870 -0.000626 17.117337 -20.510008 -29.134463 -1.247853 8.219439 -108.582884 -22.765864 26.292622 105.168960 -0.604599 9.753648 40.191737 0.000000 0.000000 0.000000 -9.744722 1.669260 17.607292 -1.808423 1.022209 10.796882 -13.776552 -25.536770 51.259301 0.000000 0.000000 0.000000 -4.856673 1.457920 24.971924 -9.293861 6.102384 6.127029 -7.015329 9.202516 -4.059599 9.519297 -6.905702 -2.967905 0.000000 0.000000 0.000000 -12.931182 -21.546573 8.222426 -35.134763 -21.905680 2.541312 -5.981765 -65.077015 5.206080 0.000000 0.000000 0.000000 11.255161 19.293314 7.339310 56.112720 31.875252 10.941120 1.809729 56.402571 2.289031 0.000000 0.000000 0.000000 
0.001978 0.969180 -0.000522 18.267296 -23.784545 -30.629664 -3.274005 9.066155 -111.822773 -21.809035 23.735140 106.959998 -8.085272 3.063448 44.847776 0.000000 0.000000 0.000000 -11.050346 2.266606 17.461680 -1.544010 1.032784 11.120812 -10.200879 -23.211258 49.789857 0.000000 0.000000 0.000000 -3.883617 1.493957 24.795574 -9.893072 7.089999 8.199723 -8.105608 9.211336 -4.930347 10.614767 -7.777188 -2.616515 0.000000 0.000000 0.000000 -10.718381 -21.445775 8.073469 -34.824899 -22.934380 2.804486 2.746312 -66.358869 -0.241382 0.000000 0.000000 0.000000 10.954439 19.360434 7.199979 56.511468 34.980322 12.789071 3.307356 55.684457 2.814029 0.000000 0.000000 0.000000 
0.002513 0.966520 -0.000844 17.541685 -23.086858 -30.077211 -2.391302 9.357002 -112.771796 -25.119652 27.201596 104.114531 -5.404322 5.676681 45.248207 0.000000 0.000000 0.000000 -11.004473 2.009394 16.383778 -0.981448 1.050794 12.138207 -10.844800 -23.164041 54.160571 0.000000 0.000000 0.000000 -3.787832 1.403868 24.775675 -9.655127 6.686254 7.358331 -7.063840 8.839582 -3.995658 9.146023 -6.750698 -2.317070 0.000000 0.000000 0.000000 -10.803190 -21.314540 8.132818 -34.170818 -24.087721 2.973056 4.202364 -66.004845 -1.013098 0.000000 0.000000 0.000000 10.931212 20.138637 7.479743 54.897907 35.271576 12.381625 3.257214 57.511983 2.826935 0.000000 0.000000 0.000000 
0.002919 0.965648 -0.001118 17.387527 -23.390328 -30.314387 -4.082887 7.012149 -114.825018 -23.319596 24.874618 106.003615 -6.661643 4.585996 45.911675 0.000000 0.000000 0.000000 -10.468669 1.929700 16.508219 -0.942246 1.005729 11.773155 -14.860291 -25.251016 56.737995 0.000000 0.000000 0.000000 -3.551853 1.455215 25.296299 -10.202383 6.897696 6.613275 -6.491694 8.294054 -3.228293 10.078357 -7.155799 -4.018202 0.000000 0.000000 0.000000 -11.123687 -20.886699 8.139358 -33.867836 -24.768860 3.042784 6.978040 -65.789382 -2.574993 0.000000 0.000000 0.000000 11.084627 20.533910 7.504545 54.360801 35.559912 12.282678 3.039339 59.136765 2.607240 0.000000 0.000000 0.000000 
0.003243 0.966538 -0.001194 17.391910 -23.906088 -30.070080 -5.311082 5.462955 -116.567597 -24.201834 25.757000 106.013760 -5.607096 5.550149 46.228463 0.000000 0.000000 0.000000 -10.500076 1.941561 16.127484 -0.831130 1.048300 12.272161 -13.000435 -24.615575 53.554130 0.000000 0.000000 0.000000 -3.704713 1.464859 24.903779 -10.189163 6.743133 6.003784 -6.610546 9.054218 -3.087566 10.222360 -7.329653 -3.764364 0.000000 0.000000 0.000000 -11.012078 -20.711153 7.989451 -34.230556 -25.553721 3.296484 6.590794 -65.961592 -2.428392 0.000000 0.000000 0.000000 10.975078 20.077813 7.377128 54.750060 35.389209 12.275132 1.811735 62.368637 2.162012 0.000000 0.000000 0.000000 
0.003545 0.967626 -0.001318 17.308160 -24.247168 -29.902940 -6.808742 3.130774 -117.998022 -23.693158 24.917682 106.682150 -5.577582 5.808096 47.248837 0.000000 0.000000 0.000000 -10.314211 1.967890 16.399144 -0.790491 0.976371 11.688749 -12.671500 -24.643826 51.720880 0.000000 0.000000 0.000000 -3.972602 1.540337 24.946541 -9.895146 6.335386 5.116520 -6.715944 9.954803 -2.717037 10.546099 -7.531134 -4.083081 0.000000 0.000000 0.000000 -11.185510 -20.559483 7.851326 -34.064014 -26.360991 3.477561 4.985059 -65.823735 -1.524573 0.000000 0.000000 0.000000 10.877258 19.555471 7.238916 55.306278 35.902450 12.664060 1.696973 63.226912 2.306861 0.000000 0.000000 0.000000 
0.003786 0.968683 -0.001600 18.030972 -24.854632 -30.282383 -7.616028 2.687636 -118.339905 -22.837751 23.265582 106.900328 -5.143542 6.287981 47.530019 0.000000 0.000000 0.000000 -10.667746 2.159330 16.594182 -0.523833 0.954147 11.861417 -13.201871 -25.593343 47.148678 0.000000 0.000000 0.000000 -4.096137 1.657398 25.156099 -9.990411 6.118505 3.880435 -6.940480 10.921251 -1.576587 10.649228 -7.672731 -4.156666 0.000000 0.000000 0.000000 -11.391258 -20.914460 8.015946 -33.680237 -26.385028 3.322416 5.306011 -65.624394 -1.752229 0.000000 0.000000 0.000000 10.285235 19.391110 7.157435 56.503906 36.872656 13.417222 0.440405 64.802879 1.784843 0.000000 0.000000 0.000000 
0.003953 0.969907 -0.001806 18.404570 -25.912801 -30.986562 -8.619441 2.501654 -117.704493 -20.386188 19.528201 107.821423 -7.972480 3.684217 47.307128 0.000000 0.000000 0.000000 -10.399466 2.312549 17.338000 -0.734898 0.969535 11.613702 -13.337409 -26.047400 43.740146 0.000000 0.000000 0.000000 -4.361686 1.864680 25.625440 -9.772195 5.878207 3.410392 -7.401606 11.879490 -1.302772 11.344160 -8.363088 -3.621019 0.000000 0.000000 0.000000 -11.486690 -20.598929 7.804942 -33.503606 -26.127865 3.205230 6.478149 -66.325162 -2.675747 0.000000 0.000000 0.000000 10.044654 19.483890 7.223150 57.198810 38.134831 14.319158 -1.166212 65.317331 0.930815 0.000000 0.000000 0.000000 
0.003964 0.969222 -0.001605 18.106290 -26.401808 -30.732280 -9.635646 1.277945 -117.620582 -18.440970 16.639064 108.905154 -8.913780 2.773191 46.981469 0.000000 0.000000 0.000000 -9.938497 2.274997 17.522662 -0.991763 0.996287 11.439015 -11.926012 -25.221402 41.083445 0.000000 0.000000 0.000000 -4.074185 1.738015 24.963127 -9.964274 5.887444 2.937509 -7.001718 12.281458 -0.265901 11.313795 -8.164337 -4.633369 0.000000 0.000000 0.000000 -11.654242 -20.382643 7.795714 -33.287275 -25.916922 3.022041 7.431136 -67.336089 -3.245846 0.000000 0.000000 0.000000 9.860527 19.429293 7.176023 58.022694 39.193824 15.074582 -1.780007 66.026173 0.610624 0.000000 0.000000 0.000000 
0.004217 0.968473 -0.001621 18.276536 -26.552849 -31.019393 -10.053048 0.884593 -117.763824 -17.978790 15.446228 108.367371 -9.413083 2.477447 47.398622 0.000000 0.000000 0.000000 -9.746544 2.345619 18.078378 -1.095268 1.015475 11.445493 -12.142027 -25.588125 37.951952 0.000000 0.000000 0.000000 -4.170640 1.758652 24.826824 -10.109419 5.836007 2.308486 -6.317734 12.266523 1.015261 10.671071 -7.464175 -5.900548 0.000000 0.000000 0.000000 -11.918855 -19.960521 7.765110 -33.237406 -25.388904 2.755854 8.665359 -69.352454 -4.021196 0.000000 0.000000 0.000000 9.989369 19.874880 7.305535 57.533434 39.831246 15.118682 -2.509066 67.329229 0.075069 0.000000 0.000000 0.000000 
0.004562 0.968949 -0.001921 18.585818 -26.930759 -31.477583 -10.424278 0.882675 -117.887055 -17.581729 14.309343 107.846473 -9.667142 2.677931 48.570796 0.000000 0.000000 0.000000 -9.665346 2.520200 18.935966 -1.239546 0.961062 10.778009 -12.204146 -25.730303 35.671875 0.000000 0.000000 0.000000 -4.017658 1.765090 24.788691 -10.145400 5.817896 2.136718 -6.139667 12.411944 1.764848 10.782285 -7.417144 -6.743885 0.000000 0.000000 0.000000 -11.796596 -19.852158 7.769671 -33.532445 -24.523108 2.484386 11.954913 -71.226315 -6.408199 0.000000 0.000000 0.000000 9.635018 20.095106 7.319974 56.953144 40.166856 15.031987 -3.758565 68.515560 -0.781637 0.000000 0.000000 0.000000 
